<svg width="162" height="146" fill="none" xmlns="http://www.w3.org/2000/svg"><path fill-rule="evenodd" clip-rule="evenodd" d="M10 6.5a3.32 3.32 0 0 1 3.31-3.18h123.23a3.32 3.32 0 0 1 3.3 2.97L154.47 146H4.5a3.32 3.32 0 0 1-3.2-4.2l3.74-13.69a3.32 3.32 0 0 0 .11-.74L10 6.5z" fill="#EDECE8"/><path fill-rule="evenodd" clip-rule="evenodd" d="M141.66 0a2.99 2.99 0 0 1-5.97 0h-2.99a2.99 2.99 0 1 1-5.97 0h-2.99a2.99 2.99 0 1 1-5.97 0h-2.99a2.99 2.99 0 0 1-5.97 0h-2.98a2.99 2.99 0 0 1-5.98 0h-2.98a2.99 2.99 0 1 1-5.98 0h-2.98a2.99 2.99 0 0 1-5.98 0h-2.98a2.99 2.99 0 1 1-5.98 0H70a2.99 2.99 0 1 1-5.97 0h-2.99a2.99 2.99 0 1 1-5.97 0h-2.99a2.99 2.99 0 0 1-5.97 0H43.1a2.99 2.99 0 1 1-5.97 0h-2.99a2.99 2.99 0 1 1-5.97 0h-2.99a2.99 2.99 0 0 1-5.97 0h-.8a3.32 3.32 0 0 0-3.32 3.32v122.5c0 .18.01.36.04.54l2.82 16.87a3.32 3.32 0 0 0 3.27 2.77H158.5a3.32 3.32 0 0 0 3.22-4.12l-3.95-15.79L144.82 2.97A3.32 3.32 0 0 0 141.66 0z" fill="#F5F4F2"/><path d="M69.85 96.23a14.93 14.93 0 1 1 29.87 0M58.52 48a6.34 6.34 0 1 1-12.7 0m73.28 0a6.34 6.34 0 0 1-3.91 5.87 6.35 6.35 0 0 1-6.92-1.38 6.35 6.35 0 0 1-1.85-4.49" stroke="#C4C2BE" stroke-width="3.318"/></svg>